<svg width="273" height="273" xmlns="http://www.w3.org/2000/svg" xmlns:xlink="http://www.w3.org/1999/xlink" xml:space="preserve" overflow="hidden"><defs><clipPath id="clip0"><rect x="1559" y="624" width="273" height="273"/></clipPath><clipPath id="clip1"><rect x="1578" y="652" width="221" height="206"/></clipPath><clipPath id="clip2"><rect x="1578" y="652" width="221" height="206"/></clipPath><clipPath id="clip3"><rect x="1578" y="652" width="221" height="206"/></clipPath></defs><g clip-path="url(#clip0)" transform="translate(-1559 -624)"><path d="M1559 669.501C1559 644.371 1579.37 624 1604.5 624L1786.5 624C1811.63 624 1832 644.371 1832 669.501L1832 851.499C1832 876.628 1811.63 897 1786.5 897L1604.5 897C1579.37 897 1559 876.628 1559 851.499Z" fill="#156082" fill-rule="evenodd"/><g clip-path="url(#clip1)"><g clip-path="url(#clip2)"><g clip-path="url(#clip3)"><path d="M104.725 54.4299C96.7533 54.4422 88.8485 55.8889 81.3886 58.7009 63.5227 66.0471 49.5298 80.5105 42.7786 98.6093 35.3982 119.044 36.7322 141.612 46.4687 161.035 61.4238 189.045 90.7425 206.386 122.493 206 138.55 205.928 154.331 201.815 168.381 194.041 192.349 180.007 209.256 156.484 214.918 129.292 220.908 99.9675 214.381 69.4735 196.911 45.1703 175.466 16.5298 141.7-0.232555 105.921 9.12389e-07 65.4761-0.399019 27.7502 20.3223 6.38945 54.6691 3.91584 58.3879 1.87531 62.3774 0.307507 66.5596-0.148068 67.653-0.148068 68.883 0.307507 69.9764 1.07072 70.6461 2.06022 71.0004 3.07513 70.9673L3.07514 70.9673C4.78354 70.9673 6.49195 69.2589 9.19124 65.3979 20.4725 48.8906 35.5844 35.3617 53.234 25.9678 68.2766 18.356 84.8942 14.3771 101.753 14.3506 141.422 14.3506 175.659 36.0474 191.103 71.0015 200.177 92.6542 200.103 117.057 190.898 138.654 182.71 157.686 167.055 172.513 147.607 179.656 140.358 182.077 132.766 183.312 125.124 183.312 95.5 183.312 71.2748 165.237 64.817 138.313 61.9011 123.935 65.3118 108.998 74.1791 97.311 81.189 88.3182 91.923 83.0205 103.325 82.9262 112.446 83.0656 121.074 87.0933 127.037 93.9966 130.882 98.6353 132.381 104.783 131.103 110.671 129.907 115.249 125.226 120.682 121.195 120.682 120 120.677 118.847 120.24 117.949 119.452 117.165 118.488 116.753 117.276 116.787 116.035 116.735 112.271 114.244 108.978 110.637 107.903 109.526 107.581 108.376 107.42 107.22 107.425 99.7027 107.425 94.475 114.532 93.1424 121.605 92.2428 128.317 94.3564 135.083 98.9169 140.09 105.296 146.752 114.158 150.465 123.381 150.34 124.167 150.34 124.919 150.34 125.876 150.34 137.241 149.056 147.452 142.799 153.757 133.256 161.443 121.282 163.585 106.572 159.634 92.9033 152.014 69.5322 130.42 54.3616 104.589 54.3616" stroke="#FFFFFF" stroke-width="3.41682" fill="#FFFFFF" transform="matrix(1.00121 0 0 1 1579.3 652)"/></g></g></g></g></svg>