<svg xmlns="http://www.w3.org/2000/svg" viewBox="0 0 63.55 60.29"><defs><style>.cls-1{fill:#0b5a9d;}</style></defs><title>pentaho</title><g id="Calque_2" data-name="Calque 2"><g id="Calque_1-2" data-name="Calque 1"><path class="cls-1" d="M30.65,15.93a19.45,19.45,0,0,0-6.83,1.25,20.3,20.3,0,0,0-11.3,11.68A23.19,23.19,0,0,0,13.6,47.13,24.88,24.88,0,0,0,35.85,60.29a28,28,0,0,0,13.43-3.5A28.75,28.75,0,0,0,62.9,37.84a31.41,31.41,0,0,0-5.27-24.62A33,33,0,0,0,31,0,33.91,33.91,0,0,0,1.87,16,17.16,17.16,0,0,0,.09,19.48a1.3,1.3,0,0,0,0,1,1.17,1.17,0,0,0,.81.29h0c.5,0,1-.5,1.79-1.63A36.23,36.23,0,0,1,15.58,7.6a31.56,31.56,0,0,1,14.2-3.4c11.61,0,21.63,6.35,26.15,16.58a25.43,25.43,0,0,1-.06,19.8,22.08,22.08,0,0,1-12.67,12,20.77,20.77,0,0,1-6.58,1.07c-8.67,0-15.76-5.29-17.65-13.17a14.94,14.94,0,0,1,2.74-12,10.93,10.93,0,0,1,8.53-4.21,9.36,9.36,0,0,1,6.94,3.24,5.74,5.74,0,0,1,1.19,4.88c-.35,1.34-1.72,2.93-2.9,2.93a1.45,1.45,0,0,1-.95-.36,1.52,1.52,0,0,1-.34-1,2.52,2.52,0,0,0-1.8-2.38,3.54,3.54,0,0,0-1-.14c-2.2,0-3.73,2.08-4.12,4.15A6.71,6.71,0,0,0,28.95,41,9.73,9.73,0,0,0,36.11,44c.23,0,.45,0,.73,0A11.3,11.3,0,0,0,45,39a14.44,14.44,0,0,0,1.72-11.81c-2.23-6.84-8.55-11.28-16.11-11.28"/></g></g></svg>